<svg xmlns="http://www.w3.org/2000/svg" width="37.422" height="37.422" viewBox="0 0 37.422 37.422"><defs><style>.a{fill:#fff;}</style></defs><g transform="translate(0 0)"><path class="a" d="M370.6,456.677a2.194,2.194,0,1,0,2.194,2.194A2.194,2.194,0,0,0,370.6,456.677Z" transform="translate(-341.986 -449.995)"/><path class="a" d="M340.431,462.915a9.216,9.216,0,1,0,9.216,9.216A9.226,9.226,0,0,0,340.431,462.915Zm0,15.119a5.9,5.9,0,1,1,5.9-5.9A5.91,5.91,0,0,1,340.431,478.034Z" transform="translate(-321.566 -453.42)"/><path class="a" d="M336,479.284H321.062a11.253,11.253,0,0,1-11.24-11.241V453.1a11.253,11.253,0,0,1,11.24-11.24H336a11.254,11.254,0,0,1,11.241,11.24v14.941A11.254,11.254,0,0,1,336,479.284Zm-14.941-33.9a7.728,7.728,0,0,0-7.72,7.72v14.941a7.728,7.728,0,0,0,7.72,7.72H336a7.729,7.729,0,0,0,7.72-7.72V453.1a7.729,7.729,0,0,0-7.72-7.72Z" transform="translate(-309.822 -441.862)"/></g></svg>