<svg xmlns="http://www.w3.org/2000/svg" width="37.454" height="37.546" viewBox="0 0 37.454 37.546"><defs><style>.a,.b{fill:#fff;}.b{fill-rule:evenodd;}</style></defs><path class="a" d="M466.6,479.27l2.692-10.043a18.588,18.588,0,1,1,7.4,7.339Zm10.6-6.468.636.379a15.09,15.09,0,1,0-5.162-5.116l.39.64-1.5,5.608Z" transform="translate(-466.601 -441.724)"/><path class="b" d="M504.513,475.106a3.12,3.12,0,0,0-2.656-.6c-.69.282-1.13,1.363-1.577,1.914a.66.66,0,0,1-.855.185,12.027,12.027,0,0,1-6-5.142.736.736,0,0,1,.093-1.005,4.058,4.058,0,0,0,1.091-1.77,3.869,3.869,0,0,0-.488-2.1,4.963,4.963,0,0,0-1.547-2.332,2.12,2.12,0,0,0-2.3.342,4.674,4.674,0,0,0-1.62,3.7,5.269,5.269,0,0,0,.146,1.175,9.747,9.747,0,0,0,1.128,2.6,20.435,20.435,0,0,0,1.177,1.79,18.166,18.166,0,0,0,5.1,4.738,15.459,15.459,0,0,0,3.183,1.514,7.07,7.07,0,0,0,3.7.585,4.485,4.485,0,0,0,3.36-2.5,2.17,2.17,0,0,0,.156-1.275C506.412,476.053,505.223,475.531,504.513,475.106Z" transform="translate(-478.704 -453.983)"/></svg>